<svg width="10" height="11" viewBox="0 0 10 11" fill="none" xmlns="http://www.w3.org/2000/svg">
<rect x="0.5" y="1" width="9" height="9" rx="4.5" fill="white"/>
<path d="M5.065 7.05C4.68833 7.05 4.36167 6.97833 4.085 6.835C3.80833 6.69167 3.59667 6.485 3.45 6.215C3.30333 5.945 3.23 5.625 3.23 5.255C3.23 4.885 3.30333 4.565 3.45 4.295C3.59667 4.02167 3.80667 3.81333 4.08 3.67C4.35667 3.52333 4.68167 3.45 5.055 3.45C5.365 3.45 5.65167 3.50333 5.915 3.61C6.17833 3.71667 6.37333 3.85833 6.5 4.035C6.54 4.08833 6.56 4.14333 6.56 4.2C6.56 4.28333 6.515 4.35833 6.425 4.425C6.385 4.455 6.335 4.47 6.275 4.47C6.225 4.47 6.175 4.46 6.125 4.44C6.075 4.41667 6.03333 4.385 6 4.345C5.88667 4.215 5.755 4.12167 5.605 4.065C5.455 4.005 5.27167 3.975 5.055 3.975C4.69167 3.975 4.40833 4.08833 4.205 4.315C4.00167 4.53833 3.9 4.85167 3.9 5.255C3.9 5.655 4.00167 5.96667 4.205 6.19C4.41167 6.41333 4.69833 6.525 5.065 6.525C5.485 6.525 5.82 6.40167 6.07 6.155C6.17333 6.05833 6.26833 6.01 6.355 6.01C6.415 6.01 6.47 6.03 6.52 6.07C6.59667 6.13667 6.635 6.21 6.635 6.29C6.635 6.35 6.61333 6.40833 6.57 6.465C6.42667 6.64833 6.22167 6.79167 5.955 6.895C5.69167 6.99833 5.395 7.05 5.065 7.05Z" fill="black"/>
<rect x="0.5" y="1" width="9" height="9" rx="4.5" stroke="black"/>
</svg>
